<svg xmlns="http://www.w3.org/2000/svg" viewBox="0 0 16 16"><defs><style>.cls-1{fill:red;}</style></defs><title>DISEÑO DE PAGINA</title><g id="Capa_1" data-name="Capa 1"><path class="cls-1" d="M9.59,12.88a.85.85,0,0,1-.85.85H7a.85.85,0,0,1-.85-.85v-.41A.85.85,0,0,1,7,11.63H8.11A4.26,4.26,0,0,0,11,10.35a4.89,4.89,0,0,0,1.43-3.49A4.89,4.89,0,0,0,10.75,3.1L10.56,3l-.07-.05L6.81,0,5.42,1.77l.85.69a4.79,4.79,0,0,0-2.73,4.4,4.9,4.9,0,0,0,1.29,3.35,3.12,3.12,0,0,0-1,2.26v.4A3.13,3.13,0,0,0,7,16H8.73a3.13,3.13,0,0,0,3.13-3.13v-.2H9.59ZM8,4.37a2.37,2.37,0,0,1,2.21,2.49A2.36,2.36,0,0,1,8,9.34,2.36,2.36,0,0,1,5.79,6.86,2.37,2.37,0,0,1,8,4.37Z"/></g></svg>